<?xml version="1.0" standalone="no"?>
<!DOCTYPE svg PUBLIC "-//W3C//DTD SVG 20010904//EN"
 "http://www.w3.org/TR/2001/REC-SVG-20010904/DTD/svg10.dtd">
<svg version="1.0" xmlns="http://www.w3.org/2000/svg"
 width="1518.000000pt" height="777.000000pt" viewBox="0 0 1518.000000 777.000000"
 preserveAspectRatio="xMidYMid meet">

<g transform="translate(0.000000,777.000000) scale(0.100000,-0.100000)"
fill="#000000" stroke="none">
<path d="M3792 7763 c2089 -2 5507 -2 7595 0 2089 1 380 2 -3797 2 -4177 0
-5886 -1 -3798 -2z"/>
<path d="M0 3850 l0 -3850 7590 0 7590 0 0 3850 0 3850 -7590 0 -7590 0 0
-3850z m5079 914 c124 -62 160 -213 75 -313 -112 -131 -308 -109 -385 42 -30
59 -23 142 17 199 65 93 190 123 293 72z m5566 11 c182 -44 336 -191 389 -374
46 -156 -11 -387 -144 -588 -84 -127 -249 -322 -428 -504 -117 -120 -151 -160
-138 -165 8 -3 145 -4 303 -2 269 3 291 5 335 25 35 16 55 34 77 70 17 26 37
58 46 71 17 24 55 30 55 8 0 -12 -54 -301 -79 -421 -6 -27 -14 -70 -19 -95
l-8 -45 -584 0 c-575 0 -585 0 -582 20 2 10 61 89 131 175 202 245 212 258
308 386 250 334 316 486 317 729 1 110 -1 125 -26 177 -32 70 -103 142 -166
171 -73 33 -198 30 -277 -6 -62 -29 -141 -98 -176 -154 -21 -33 -46 -42 -66
-22 -12 12 0 59 41 158 60 140 159 260 272 326 114 68 285 92 419 60z m1847
-632 l3 -648 88 -3 87 -3 0 -144 0 -144 -87 -3 -88 -3 -5 -220 -5 -220 -200 0
-200 0 -5 220 -5 220 -354 5 -353 5 1 148 2 147 256 353 c141 193 281 386 312
428 50 68 102 139 311 427 l60 82 90 0 90 0 2 -647z m-9301 524 c36 -45 108
-136 160 -202 53 -66 208 -262 345 -435 137 -173 280 -354 318 -402 38 -49 73
-88 78 -88 4 0 8 213 8 473 0 535 -2 551 -69 618 -38 38 -81 55 -163 66 -42 5
-48 9 -48 29 l0 24 325 0 325 0 0 -24 c0 -26 -7 -30 -75 -42 -89 -16 -141 -57
-167 -132 -9 -28 -13 -246 -16 -934 l-3 -898 -27 0 c-23 1 -61 43 -274 308
-278 346 -473 588 -623 772 -139 170 -221 273 -345 428 -58 72 -108 131 -112
131 -5 1 -8 -302 -8 -672 0 -743 0 -740 61 -803 41 -42 123 -74 190 -74 49 0
50 -1 47 -27 l-3 -28 -345 0 -345 0 -3 26 c-3 25 0 26 55 32 86 9 128 24 167
60 67 63 66 52 66 893 l0 752 -45 55 c-62 74 -109 105 -183 118 -56 10 -62 14
-62 35 l0 24 353 0 352 0 66 -83z m5659 -847 c5 -870 6 -928 23 -953 19 -29
50 -45 105 -54 29 -5 33 -9 30 -32 l-3 -26 -365 0 -365 0 -3 28 c-3 22 1 27
20 27 13 0 42 9 66 20 76 34 72 -15 72 919 0 733 -2 835 -16 870 -16 41 -48
62 -111 76 -26 5 -33 12 -33 31 l0 24 288 -2 287 -3 5 -925z m-2263 294 c48
-36 66 -70 71 -134 6 -85 -4 -126 -44 -170 -74 -82 -164 -77 -273 14 -64 54
-126 45 -185 -25 -38 -44 -52 -75 -77 -165 -21 -72 -23 -106 -27 -395 -3 -265
-1 -321 11 -351 17 -41 56 -65 120 -76 36 -7 42 -11 42 -32 l0 -25 -367 -3
-368 -2 0 30 c0 20 5 30 15 30 8 0 33 7 56 17 75 29 74 21 77 573 3 338 0 501
-8 537 -13 61 -48 97 -104 107 -32 6 -36 10 -36 37 l0 29 278 -2 277 -3 5
-140 5 -140 61 80 c91 119 170 184 272 222 54 20 164 13 199 -13z m1068 11
c33 -9 79 -25 103 -36 66 -32 147 -113 179 -177 l28 -57 5 -440 c5 -400 7
-443 23 -468 20 -31 60 -36 95 -11 26 18 62 10 62 -13 0 -8 -35 -50 -77 -92
-92 -91 -139 -111 -253 -111 -128 0 -226 66 -244 165 -4 19 -12 35 -18 35 -6
0 -40 -22 -77 -49 -100 -73 -140 -96 -219 -125 -141 -51 -274 -28 -351 59 -49
56 -64 100 -65 181 0 62 4 80 36 145 64 128 168 207 486 366 l192 97 0 151 c0
82 -5 166 -10 186 -33 117 -215 157 -327 73 -48 -36 -45 -78 8 -154 52 -73 62
-135 31 -196 -24 -48 -47 -69 -95 -89 -56 -23 -125 -19 -186 11 -206 103 -103
393 179 504 144 57 369 77 495 45z m-2475 -620 c4 -428 8 -606 17 -620 20 -36
52 -58 100 -70 41 -10 48 -16 48 -36 l0 -24 -350 -3 c-192 -1 -360 0 -372 3
-25 6 -32 43 -10 49 110 31 130 47 146 115 12 57 14 906 1 990 -12 84 -33 112
-101 132 -55 17 -75 42 -47 60 7 5 137 8 288 6 l275 -2 5 -600z"/>
<path d="M12020 4200 c-30 -41 -77 -106 -105 -145 -28 -38 -128 -177 -223
-308 -95 -131 -170 -242 -167 -247 7 -12 524 -13 543 -2 9 7 12 92 10 393 l-3
384 -55 -75z"/>
<path d="M7495 3449 c-65 -41 -181 -154 -210 -204 -51 -86 -52 -172 -3 -235
28 -36 57 -49 109 -50 51 0 100 17 142 50 l27 21 0 225 c0 123 -4 224 -8 224
-4 0 -30 -14 -57 -31z"/>
</g>
</svg>
